<svg xmlns="http://www.w3.org/2000/svg" xmlns:xlink="http://www.w3.org/1999/xlink" width="500" zoomAndPan="magnify" viewBox="0 0 375 374.999991" height="500" preserveAspectRatio="xMidYMid meet" version="1.0"><defs><g/><clipPath id="2265fc5c5c"><path d="M 38 115.34375 L 330 115.34375 L 330 259.34375 L 38 259.34375 Z M 38 115.34375 " clip-rule="nonzero"/></clipPath></defs><g clip-path="url(#2265fc5c5c)"><path fill="#cbb74b" d="M 199.089844 129.179688 C 202.773438 125.703125 205.191406 120.921875 205.601562 115.582031 L 205.714844 115.5625 C 206.179688 121.738281 209.339844 127.117188 214.027344 130.558594 C 240.652344 133.683594 263.664062 140.007812 280.21875 148.433594 C 262.601562 142.519531 240.910156 138.40625 217.003906 136.828125 C 210.71875 140.0625 206.269531 146.40625 205.714844 153.792969 L 205.601562 153.792969 C 204.988281 145.625 199.59375 138.796875 192.226562 136.101562 L 191.945312 136.101562 C 117.71875 136.695312 57.535156 160.898438 57.535156 190.144531 C 57.535156 202.21875 67.785156 213.25 85.011719 222.03125 C 56.753906 212.542969 38.894531 198.386719 38.894531 182.460938 C 38.894531 134.558594 161.753906 126.613281 199.089844 129.179688 Z M 163.558594 221.734375 L 163.667969 221.734375 C 164.152344 227.984375 167.40625 233.433594 172.207031 236.875 C 201.640625 237.027344 311.363281 227.203125 311.363281 182.816406 C 311.363281 170.757812 301.113281 159.710938 283.886719 150.945312 C 312.144531 160.433594 329.984375 174.574219 329.984375 190.515625 C 329.984375 237.957031 209.003906 246.085938 173.195312 244.003906 C 167.855469 247.460938 164.191406 253.285156 163.667969 259.964844 L 163.558594 259.964844 C 162.851562 250.625 155.949219 243.070312 146.945312 241.378906 C 127.28125 238.476562 106.425781 233.566406 88.675781 224.542969 C 107.261719 230.773438 130.367188 234.996094 155.855469 236.375 C 160.207031 232.859375 163.109375 227.632812 163.558594 221.734375 " fill-opacity="1" fill-rule="evenodd"/></g><path stroke-linecap="butt" transform="matrix(0.737838, -0.134515, 0.134515, 0.737838, 34.565993, 163.63726)" fill="none" stroke-linejoin="miter" d="M 12.213277 53.002348 L 42.665735 53.000528 C 43.407365 52.998085 43.994169 52.36388 43.992661 51.617126 L 43.995425 39.928079 C 43.992983 39.186449 43.406761 38.597804 42.66513 38.600247 L 18.672117 38.599084 C 17.915115 38.598724 17.327959 38.015203 17.33064 37.274507 L 17.328512 26.076927 C 17.328872 25.319925 17.917517 24.733703 18.669395 24.733129 L 42.667532 24.735226 C 43.409163 24.732784 43.996901 24.093455 43.994458 23.351824 L 43.995355 11.673026 C 43.994781 10.921147 43.408559 10.332503 42.666928 10.334945 L 12.215405 10.331642 C 5.92553 10.333775 1.3259 14.916459 1.326165 21.216582 L 1.328338 42.113108 C 1.327668 48.418355 5.924336 52.999357 12.213277 53.002348 Z M 12.213277 53.002348 " stroke="#231f20" stroke-width="10.733327" stroke-opacity="1" stroke-miterlimit="4"/><path stroke-linecap="butt" transform="matrix(0.742836, -0.103416, 0.103416, 0.742836, 69.020719, 157.441175)" fill="none" stroke-linejoin="miter" d="M 2.721312 53.001624 L 15.999528 52.999179 C 16.74641 52.997987 17.326965 52.416231 17.330932 51.670068 L 17.33005 44.197524 C 17.32814 43.455801 17.914571 42.869605 18.671771 42.86985 C 19.413494 42.86794 19.997667 43.506675 19.999577 44.248399 L 19.996605 51.673078 C 19.998515 52.414802 20.637733 52.998098 21.378738 53.001346 L 34.656954 52.998901 C 35.414153 52.999146 36.000585 52.41295 35.998675 51.671227 L 35.999772 21.219031 C 35.999373 14.913957 31.415527 10.331878 25.115611 10.332996 L 12.210836 10.334845 C 5.921955 10.33224 1.32956 14.91465 1.329959 21.219724 L 1.328862 51.671919 C 1.325613 52.412925 1.980307 52.998375 2.721312 53.001624 Z M 18.671034 30.070401 C 17.913835 30.070156 17.327639 29.483725 17.327165 28.731684 L 17.331121 24.472797 C 17.331365 23.715598 17.917078 23.134561 18.669119 23.134087 C 19.410843 23.132178 19.997038 23.718609 19.997512 24.47065 L 19.998715 28.730254 C 19.99847 29.487454 19.412039 30.07365 18.671034 30.070401 Z M 18.671034 30.070401 " stroke="#231f20" stroke-width="10.733327" stroke-opacity="1" stroke-miterlimit="4"/><path stroke-linecap="butt" transform="matrix(0.746523, -0.0721351, 0.0721351, 0.746523, 97.748376, 153.399453)" fill="none" stroke-linejoin="miter" d="M 2.666897 53.000867 L 15.999437 53.001948 C 16.742605 53.000503 17.327649 52.3611 17.331387 51.618433 L 17.329079 39.133245 C 17.327634 38.390077 17.918036 37.803518 18.671072 37.808258 L 26.666649 37.806432 C 27.409817 37.804987 27.991693 38.389704 27.993138 39.132872 L 27.995621 51.670403 C 27.991883 52.41307 28.578943 52.998289 29.332479 52.997845 L 42.66502 52.998926 C 43.408187 52.997481 43.99273 52.363262 43.996469 51.620595 L 43.99289 38.444582 C 43.993772 35.294646 41.703734 33.001258 38.553798 33.000376 L 38.082713 33.001949 C 37.329177 33.002392 36.742117 32.417174 36.740671 31.674006 C 36.740729 30.915286 37.33063 30.333911 38.084167 30.333467 L 38.550068 30.331393 C 41.705187 30.332776 43.993392 28.042237 43.994274 24.892301 L 43.995433 19.03191 C 43.993202 14.018871 40.32566 10.331322 35.312621 10.333552 L 2.666409 10.334262 C 1.912873 10.334706 1.327654 10.921766 1.328098 11.675302 L 1.330039 51.673426 C 1.3263 52.416092 1.91336 53.001311 2.666897 53.000867 Z M 18.668461 25.54281 C 17.914925 25.543253 17.328365 24.952851 17.327922 24.199314 C 17.331661 23.456648 17.916879 22.869587 18.670415 22.869144 L 26.665492 22.872502 C 27.408659 22.871057 27.99572 23.456275 27.991981 24.198942 C 27.992424 24.952478 27.407206 25.539538 26.664038 25.540984 Z M 18.668461 25.54281 " stroke="#231f20" stroke-width="10.733327" stroke-opacity="1" stroke-miterlimit="4"/><path stroke-linecap="butt" transform="matrix(0.74884, -0.0417008, 0.0417008, 0.74884, 132.57127, 150.135254)" fill="none" stroke-linejoin="miter" d="M 10.766426 53.000277 L 24.047452 52.999131 C 24.803809 52.999519 25.386906 52.36429 25.386715 51.618334 L 25.390355 26.07381 C 25.390743 25.317454 26.028436 24.732213 26.769192 24.731732 L 32.105582 24.731566 C 32.851538 24.731375 33.436939 24.148439 33.436459 23.407682 L 33.437709 11.676061 C 33.435201 10.971707 32.849961 10.334014 32.109205 10.334495 L 2.670807 10.28094 C 1.914451 10.280552 1.32876 10.868689 1.328662 11.619845 L 1.329716 23.403759 C 1.329907 24.149715 1.912843 24.735116 2.6692 24.735504 L 7.995189 24.734758 C 8.751546 24.735147 9.386774 25.318243 9.386386 26.0746 L 9.38505 51.671416 C 9.385531 52.412172 10.02567 53.000758 10.766426 53.000277 Z M 10.766426 53.000277 " stroke="#231f20" stroke-width="10.733327" stroke-opacity="1" stroke-miterlimit="4"/><path stroke-linecap="butt" transform="matrix(0.749696, -0.0213562, 0.0213562, 0.749696, 159.263886, 148.739623)" fill="none" stroke-linejoin="miter" d="M 2.72347 52.998298 L 15.999601 53.001335 C 16.744684 53.001718 17.329366 52.413962 17.329601 51.674085 L 17.327988 11.673441 C 17.328668 10.917946 16.694056 10.331929 15.948973 10.331546 L 2.667487 10.333567 C 1.911991 10.332887 1.32731 10.920643 1.32663 11.676139 L 1.328391 51.671576 C 1.328008 52.416659 1.978387 52.997915 2.72347 52.998298 Z M 2.72347 52.998298 " stroke="#231f20" stroke-width="10.733327" stroke-opacity="1" stroke-miterlimit="4"/><path stroke-linecap="butt" transform="matrix(0.749994, 0.00304838, -0.00304838, 0.749994, 174.037697, 148.16838)" fill="none" stroke-linejoin="miter" d="M 2.722468 52.999247 L 42.71759 52.998145 C 43.462397 53.000326 44.048563 52.414606 44.045536 51.66982 L 44.045985 41.529108 C 44.048188 40.78951 43.410384 40.203555 42.665577 40.201374 L 18.670578 40.199944 C 17.915376 40.203013 17.329656 39.616848 17.331837 38.872041 C 17.328767 38.116839 17.914933 37.531118 18.670156 37.533257 L 40.581796 37.532738 C 41.326582 37.529711 41.912748 36.94399 41.909742 36.204413 L 41.909323 27.131422 C 41.911504 26.386615 41.2737 25.800661 40.528915 25.803688 L 18.669336 25.798787 C 17.914134 25.801856 17.328414 25.21569 17.330595 24.470883 C 17.327525 23.715681 17.913691 23.12996 18.668914 23.132099 L 42.721204 23.133297 C 43.460782 23.130291 44.046948 22.54457 44.04915 21.804972 L 44.044433 11.674697 C 44.046572 10.919474 43.460851 10.333308 42.721253 10.331106 L 2.668839 10.332441 C 1.913637 10.335511 1.327471 10.921231 1.330541 11.676433 L 1.326435 51.671577 C 1.329462 52.416363 1.977682 53.002275 2.722468 52.999247 Z M 2.722468 52.999247 " stroke="#231f20" stroke-width="10.733327" stroke-opacity="1" stroke-miterlimit="4"/><path stroke-linecap="butt" transform="matrix(0.749057, 0.0376013, -0.0376013, 0.749057, 209.185464, 148.337057)" fill="none" stroke-linejoin="miter" d="M 2.668394 52.999089 L 16.00304 53.002434 C 16.743522 53.001768 17.331983 52.362086 17.331316 51.621605 L 17.330147 39.131997 C 17.32948 38.391516 17.915351 37.804113 18.671698 37.807865 L 26.666139 37.808105 C 27.406621 37.807438 27.994024 38.393309 27.99469 39.13379 L 27.993008 51.670474 C 27.993936 52.416157 28.581339 53.002028 29.332224 53.000839 L 42.666609 52.998982 C 43.40709 52.998315 43.995812 52.363835 43.994884 51.618152 L 43.995921 38.445284 C 43.993996 35.290371 41.704476 33.001236 38.554765 33.002899 L 38.085299 33.000391 C 37.329212 33.001841 36.741809 32.41597 36.741142 31.675489 C 36.744894 30.919141 37.330765 30.331738 38.081649 30.330549 L 38.551116 30.333057 C 41.700827 30.331394 43.995164 28.041613 43.9935 24.891901 L 43.996503 19.030212 C 43.995252 14.018764 40.321507 10.33373 35.310059 10.334981 L 2.66984 10.330772 C 1.913753 10.332222 1.327883 10.919625 1.329333 11.675712 L 1.32944 51.673926 C 1.330106 52.414408 1.912308 53.000539 2.668394 52.999089 Z M 18.671353 25.542457 C 17.915006 25.538705 17.327603 24.952834 17.331616 24.201689 C 17.330688 23.456006 17.91682 22.873804 18.672906 22.872354 L 26.667347 22.872594 C 27.407828 22.871927 27.995232 23.457798 27.990696 24.19854 C 27.992146 24.954627 27.406276 25.54203 26.665795 25.542697 Z M 18.671353 25.542457 " stroke="#231f20" stroke-width="10.733327" stroke-opacity="1" stroke-miterlimit="4"/><path stroke-linecap="butt" transform="matrix(0.746817, 0.0690193, -0.0690193, 0.746817, 244.144558, 150.176064)" fill="none" stroke-linejoin="miter" d="M 2.669879 52.999661 L 15.95036 53.00148 C 16.693036 53.000841 17.329209 52.413763 17.328569 51.671087 L 17.327687 40.681828 C 17.331275 39.9283 17.915107 39.340829 18.668634 39.344417 C 19.41131 39.343778 19.998781 39.927609 20.000379 40.680658 L 19.996075 51.670397 C 19.996715 52.413073 20.584665 53.002091 21.327341 53.001451 L 34.607342 52.998084 C 35.36087 53.001672 36.00223 52.414115 36.00159 51.67144 L 35.99973 46.331241 C 35.999176 45.646093 35.948149 45.26375 35.778932 44.677878 L 32.160528 32.52178 C 31.94015 31.77849 32.004658 31.401161 32.159384 30.811503 L 35.779597 18.650705 C 35.950362 18.064795 36.000097 17.584221 35.998278 16.99857 L 35.997855 11.67393 C 36.001443 10.920403 35.361152 10.330992 34.608104 10.33259 L 21.327623 10.33077 C 20.584947 10.33141 20.001115 10.918881 19.997527 11.672408 L 19.997451 22.651295 C 19.999049 23.404344 19.415217 23.991814 18.672541 23.992454 C 17.913827 23.989346 17.331543 23.405035 17.329945 22.651986 L 17.330021 11.673099 C 17.328423 10.92005 16.693797 10.335346 15.950642 10.3308 L 2.67064 10.334167 C 1.911926 10.331058 1.328094 10.918528 1.330172 11.676763 L 1.328241 51.669565 C 1.328881 52.412241 1.911644 53.001738 2.669879 52.999661 Z M 2.669879 52.999661 " stroke="#231f20" stroke-width="10.733327" stroke-opacity="1" stroke-miterlimit="4"/><path stroke-linecap="butt" transform="matrix(0.743663, 0.0972938, -0.0972938, 0.743663, 272.930876, 152.853638)" fill="none" stroke-linejoin="miter" d="M 12.211608 53.001569 L 25.117233 52.999242 C 31.415334 52.999935 36.000377 48.41851 36.000394 42.115245 L 35.999552 11.675851 C 36.000381 10.919351 35.414309 10.334184 34.65781 10.333356 L 21.378761 10.332011 C 20.638429 10.33432 20.000268 10.916819 19.99944 11.673319 L 19.99705 37.27013 C 20.000035 38.015626 19.414868 38.601697 18.668697 38.599517 C 17.917362 38.598013 17.33129 38.012847 17.328981 37.272516 L 17.331371 11.675705 C 17.332199 10.919205 16.746128 10.334038 15.999957 10.331859 L 2.721584 10.335678 C 1.980577 10.332823 1.326923 10.917349 1.326094 11.673849 L 1.326936 42.113244 C 1.326919 48.416509 5.923836 52.999525 12.211608 53.001569 Z M 12.211608 53.001569 " stroke="#231f20" stroke-width="10.733327" stroke-opacity="1" stroke-miterlimit="4"/><path stroke-linecap="butt" transform="matrix(0.7396, 0.124466, -0.124466, 0.7396, 301.561245, 156.633359)" fill="none" stroke-linejoin="miter" d="M 10.769392 52.999045 L 24.047196 52.998644 C 24.802404 52.998309 25.387071 52.361196 25.389329 51.621396 L 25.389263 26.074444 C 25.388927 25.319236 26.024191 24.731705 26.769127 24.733098 L 32.108675 24.732379 C 32.848475 24.734637 33.43665 24.149749 33.432907 23.405678 L 33.434091 11.675107 C 33.437263 10.972125 32.848868 10.331725 32.109933 10.334603 L 2.66698 10.282592 C 1.911772 10.282927 1.328734 10.86695 1.329069 11.622159 L 1.326256 23.405819 C 1.329999 24.14989 1.914022 24.732929 2.66923 24.732593 L 7.99337 24.734468 C 8.748578 24.734132 9.385692 25.318799 9.386027 26.074007 L 9.3896 51.673184 C 9.387342 52.412984 10.024456 52.997651 10.769392 52.999045 Z M 10.769392 52.999045 " stroke="#231f20" stroke-width="10.733327" stroke-opacity="1" stroke-miterlimit="4"/><path stroke-linecap="butt" transform="matrix(0.735948, 0.144499, -0.144499, 0.735948, 327.904406, 161.158936)" fill="none" stroke-linejoin="miter" d="M 2.7233 53.001201 L 16.003107 52.999912 C 16.745706 52.997417 17.332021 52.415213 17.329526 51.672614 L 17.331331 11.672848 C 17.33194 10.919023 16.691511 10.333526 15.948912 10.33602 L 2.668102 10.332198 C 1.914278 10.331589 1.328967 10.918904 1.328358 11.672728 L 1.326553 51.672494 C 1.329048 52.415093 1.979698 52.998584 2.7233 53.001201 Z M 2.7233 53.001201 " stroke="#231f20" stroke-width="10.733327" stroke-opacity="1" stroke-miterlimit="4"/><g fill="#007a76" fill-opacity="1"><g transform="translate(41.695289, 202.742699)"><g><path d="M 9.011719 -1.644531 L 31.480469 -5.738281 C 32.03125 -5.839844 32.375 -6.390625 32.277344 -6.941406 L 30.707031 -15.558594 C 30.605469 -16.109375 30.09375 -16.464844 29.542969 -16.363281 L 11.835938 -13.136719 C 11.285156 -13.035156 10.773438 -13.386719 10.671875 -13.9375 L 9.164062 -22.203125 C 9.066406 -22.753906 9.417969 -23.265625 9.96875 -23.367188 L 27.675781 -26.59375 C 28.226562 -26.695312 28.574219 -27.246094 28.472656 -27.796875 L 26.902344 -36.414062 C 26.804688 -36.964844 26.292969 -37.320312 25.738281 -37.21875 L 3.273438 -33.121094 C -1.371094 -32.277344 -4.136719 -28.273438 -3.292969 -23.632812 L -0.480469 -8.207031 C 0.367188 -3.5625 4.367188 -0.796875 9.011719 -1.644531 Z M 9.011719 -1.644531 "/></g></g></g><g fill="#007a76" fill-opacity="1"><g transform="translate(74.501782, 196.811472)"><g><path d="M 2.019531 -0.28125 L 11.882812 -1.65625 C 12.4375 -1.730469 12.8125 -2.226562 12.738281 -2.78125 L 11.964844 -8.328125 C 11.886719 -8.882812 12.261719 -9.378906 12.816406 -9.457031 C 13.371094 -9.535156 13.875 -9.121094 13.953125 -8.566406 L 14.71875 -3.058594 C 14.796875 -2.503906 15.332031 -2.132812 15.886719 -2.210938 L 25.75 -3.585938 C 26.304688 -3.660156 26.679688 -4.160156 26.601562 -4.714844 L 23.453125 -27.332031 C 22.800781 -32.007812 18.921875 -34.941406 14.246094 -34.289062 L 4.660156 -32.957031 C -0.015625 -32.304688 -2.949219 -28.421875 -2.296875 -23.75 L 0.851562 -1.128906 C 0.929688 -0.574219 1.464844 -0.203125 2.019531 -0.28125 Z M 11.492188 -18.964844 C 10.9375 -18.886719 10.441406 -19.261719 10.367188 -19.816406 L 9.925781 -22.988281 C 9.847656 -23.542969 10.222656 -24.039062 10.777344 -24.113281 C 11.332031 -24.191406 11.828125 -23.816406 11.90625 -23.261719 L 12.347656 -20.09375 C 12.421875 -19.539062 12.046875 -19.042969 11.492188 -18.964844 Z M 11.492188 -18.964844 "/></g></g></g><g fill="#007a76" fill-opacity="1"><g transform="translate(101.571538, 192.965167)"><g><path d="M 1.992188 -0.191406 L 11.945312 -1.152344 C 12.5 -1.207031 12.894531 -1.726562 12.839844 -2.285156 L 11.9375 -11.601562 C 11.886719 -12.160156 12.28125 -12.640625 12.835938 -12.691406 L 18.808594 -13.269531 C 19.367188 -13.324219 19.847656 -12.929688 19.902344 -12.371094 L 20.804688 -3.015625 C 20.859375 -2.457031 21.339844 -2.0625 21.898438 -2.117188 L 31.851562 -3.078125 C 32.40625 -3.132812 32.796875 -3.652344 32.746094 -4.207031 L 31.792969 -14.042969 C 31.566406 -16.390625 29.691406 -17.9375 27.339844 -17.710938 L 26.984375 -17.675781 C 26.425781 -17.621094 25.945312 -18.019531 25.890625 -18.574219 C 25.835938 -19.132812 26.234375 -19.613281 26.789062 -19.667969 L 27.148438 -19.703125 C 29.5 -19.929688 31.042969 -21.804688 30.816406 -24.15625 L 30.394531 -28.535156 C 30.03125 -32.277344 27.019531 -34.757812 23.277344 -34.394531 L -1.085938 -32.042969 C -1.644531 -31.988281 -2.039062 -31.507812 -1.984375 -30.949219 L 0.898438 -1.089844 C 0.953125 -0.535156 1.433594 -0.136719 1.992188 -0.191406 Z M 11.953125 -21.851562 C 11.394531 -21.796875 10.914062 -22.191406 10.863281 -22.75 C 10.808594 -23.304688 11.203125 -23.785156 11.761719 -23.839844 L 17.734375 -24.417969 C 18.289062 -24.472656 18.769531 -24.074219 18.824219 -23.519531 C 18.878906 -22.960938 18.480469 -22.480469 17.925781 -22.425781 Z M 11.953125 -21.851562 "/></g></g></g><g fill="#007a76" fill-opacity="1"><g transform="translate(134.781411, 189.823761)"><g><path d="M 8.066406 -0.449219 L 18.011719 -1.003906 C 18.570312 -1.035156 18.984375 -1.539062 18.953125 -2.097656 L 17.886719 -21.226562 C 17.855469 -21.785156 18.308594 -22.25 18.867188 -22.28125 L 22.863281 -22.503906 C 23.421875 -22.535156 23.835938 -23 23.804688 -23.558594 L 23.316406 -32.34375 C 23.289062 -32.863281 22.820312 -33.320312 22.261719 -33.289062 L 0.214844 -32.101562 C -0.34375 -32.070312 -0.757812 -31.605469 -0.726562 -31.046875 L -0.234375 -22.21875 C -0.203125 -21.660156 0.257812 -21.246094 0.816406 -21.277344 L 4.8125 -21.5 C 5.371094 -21.53125 5.875 -21.117188 5.90625 -20.558594 L 6.972656 -1.390625 C 7.003906 -0.832031 7.507812 -0.417969 8.066406 -0.449219 Z M 8.066406 -0.449219 "/></g></g></g><g fill="#007a76" fill-opacity="1"><g transform="translate(160.395762, 188.473502)"><g><path d="M 2.039062 -0.0585938 L 11.996094 -0.339844 C 12.554688 -0.359375 12.980469 -0.808594 12.964844 -1.371094 L 12.109375 -31.355469 C 12.09375 -31.914062 11.601562 -32.339844 11.042969 -32.324219 L 1.089844 -32.042969 C 0.527344 -32.027344 0.101562 -31.574219 0.117188 -31.015625 L 0.972656 -1.027344 C 0.988281 -0.46875 1.480469 -0.0429688 2.039062 -0.0585938 Z M 2.039062 -0.0585938 "/></g></g></g><g fill="#007a76" fill-opacity="1"><g transform="translate(173.876133, 187.918047)"><g><path d="M 2.039062 0.0078125 L 32.039062 0.128906 C 32.597656 0.132812 33.039062 -0.304688 33.042969 -0.867188 L 33.074219 -8.464844 C 33.074219 -9.023438 32.597656 -9.46875 32.035156 -9.46875 L 14.039062 -9.542969 C 13.476562 -9.542969 13.039062 -9.988281 13.042969 -10.546875 C 13.042969 -11.105469 13.484375 -11.542969 14.046875 -11.542969 L 30.484375 -11.476562 C 31.046875 -11.472656 31.488281 -11.910156 31.488281 -12.472656 L 31.515625 -19.269531 C 31.519531 -19.832031 31.039062 -20.273438 30.480469 -20.273438 L 14.082031 -20.339844 C 13.523438 -20.34375 13.082031 -20.785156 13.085938 -21.34375 C 13.089844 -21.90625 13.53125 -22.34375 14.089844 -22.339844 L 32.128906 -22.269531 C 32.6875 -22.265625 33.128906 -22.703125 33.132812 -23.265625 L 33.164062 -30.863281 C 33.164062 -31.421875 32.726562 -31.867188 32.167969 -31.867188 L 2.128906 -31.988281 C 1.570312 -31.992188 1.128906 -31.554688 1.125 -30.992188 L 1.003906 -0.996094 C 1 -0.4375 1.480469 0.0078125 2.039062 0.0078125 Z M 2.039062 0.0078125 "/></g></g></g><g fill="#007a76" fill-opacity="1"><g transform="translate(207.192593, 188.037066)"><g><path d="M 1.996094 0.101562 L 11.984375 0.601562 C 12.542969 0.628906 13.007812 0.171875 13.035156 -0.386719 L 13.503906 -9.734375 C 13.53125 -10.292969 13.992188 -10.710938 14.554688 -10.683594 L 20.546875 -10.382812 C 21.105469 -10.355469 21.523438 -9.894531 21.492188 -9.332031 L 21.023438 0.0546875 C 20.996094 0.613281 21.410156 1.074219 21.972656 1.101562 L 31.957031 1.605469 C 32.515625 1.632812 32.980469 1.175781 33.007812 0.617188 L 33.503906 -9.25 C 33.621094 -11.609375 31.992188 -13.410156 29.632812 -13.53125 L 29.273438 -13.546875 C 28.714844 -13.578125 28.296875 -14.039062 28.324219 -14.597656 C 28.355469 -15.15625 28.816406 -15.574219 29.375 -15.546875 L 29.734375 -15.527344 C 32.089844 -15.410156 33.894531 -17.039062 34.011719 -19.398438 L 34.234375 -23.792969 C 34.421875 -27.546875 31.804688 -30.441406 28.050781 -30.628906 L 3.601562 -31.859375 C 3.042969 -31.886719 2.582031 -31.46875 2.554688 -30.910156 L 1.046875 -0.949219 C 1.019531 -0.390625 1.4375 0.0703125 1.996094 0.101562 Z M 15.015625 -19.871094 C 14.453125 -19.898438 14.039062 -20.359375 14.066406 -20.917969 C 14.09375 -21.480469 14.554688 -21.894531 15.113281 -21.867188 L 21.105469 -21.566406 C 21.664062 -21.539062 22.082031 -21.078125 22.054688 -20.519531 C 22.027344 -19.960938 21.566406 -19.542969 21.007812 -19.570312 Z M 15.015625 -19.871094 "/></g></g></g><g fill="#007a76" fill-opacity="1"><g transform="translate(240.486533, 189.757386)"><g><path d="M 1.992188 0.183594 L 11.910156 1.101562 C 12.464844 1.152344 12.984375 0.757812 13.035156 0.199219 L 13.792969 -8.003906 C 13.847656 -8.5625 14.324219 -8.960938 14.882812 -8.90625 C 15.441406 -8.855469 15.835938 -8.378906 15.785156 -7.820312 L 15.027344 0.382812 C 14.976562 0.941406 15.375 1.421875 15.929688 1.472656 L 25.847656 2.390625 C 26.40625 2.441406 26.925781 2.046875 26.976562 1.488281 L 27.34375 -2.492188 C 27.390625 -3.011719 27.378906 -3.292969 27.296875 -3.742188 L 25.429688 -13.074219 C 25.320312 -13.648438 25.386719 -13.921875 25.546875 -14.347656 L 29.09375 -23.179688 C 29.253906 -23.605469 29.328125 -23.960938 29.367188 -24.398438 L 29.738281 -28.382812 C 29.789062 -28.941406 29.351562 -29.421875 28.792969 -29.472656 L 18.875 -30.390625 C 18.316406 -30.441406 17.839844 -30.042969 17.789062 -29.484375 L 17.03125 -21.28125 C 16.976562 -20.722656 16.5 -20.328125 15.941406 -20.378906 C 15.382812 -20.429688 14.988281 -20.90625 15.039062 -21.464844 L 15.796875 -29.671875 C 15.847656 -30.226562 15.410156 -30.710938 14.851562 -30.761719 L 4.9375 -31.679688 C 4.378906 -31.730469 3.898438 -31.332031 3.847656 -30.773438 L 1.085938 -0.902344 C 1.035156 -0.347656 1.433594 0.132812 1.992188 0.183594 Z M 1.992188 0.183594 "/></g></g></g><g fill="#007a76" fill-opacity="1"><g transform="translate(267.774306, 192.267751)"><g><path d="M 9.082031 1.1875 L 18.679688 2.445312 C 23.359375 3.054688 27.214844 0.0898438 27.828125 -4.589844 L 30.792969 -27.234375 C 30.863281 -27.789062 30.484375 -28.28125 29.929688 -28.355469 L 20.054688 -29.648438 C 19.5 -29.71875 18.964844 -29.34375 18.894531 -28.789062 L 16.402344 -9.753906 C 16.332031 -9.199219 15.835938 -8.820312 15.28125 -8.890625 C 14.726562 -8.964844 14.347656 -9.457031 14.421875 -10.011719 L 16.910156 -29.050781 C 16.984375 -29.605469 16.605469 -30.097656 16.046875 -30.171875 L 6.171875 -31.464844 C 5.617188 -31.535156 5.085938 -31.160156 5.011719 -30.605469 L 2.050781 -7.960938 C 1.4375 -3.28125 4.402344 0.574219 9.082031 1.1875 Z M 9.082031 1.1875 "/></g></g></g><g fill="#007a76" fill-opacity="1"><g transform="translate(294.964527, 195.832155)"><g><path d="M 7.96875 1.339844 L 17.789062 2.992188 C 18.339844 3.085938 18.855469 2.6875 18.949219 2.132812 L 22.125 -16.757812 C 22.21875 -17.3125 22.765625 -17.664062 23.316406 -17.574219 L 27.261719 -16.910156 C 27.816406 -16.816406 28.320312 -17.175781 28.414062 -17.730469 L 29.875 -26.40625 C 29.960938 -26.917969 29.605469 -27.464844 29.054688 -27.558594 L 7.289062 -31.261719 C 6.738281 -31.355469 6.230469 -30.992188 6.136719 -30.441406 L 4.671875 -21.726562 C 4.578125 -21.171875 4.9375 -20.664062 5.488281 -20.574219 L 9.433594 -19.910156 C 9.988281 -19.816406 10.386719 -19.300781 10.292969 -18.75 L 7.109375 0.183594 C 7.015625 0.734375 7.414062 1.246094 7.96875 1.339844 Z M 7.96875 1.339844 "/></g></g></g><g fill="#007a76" fill-opacity="1"><g transform="translate(320.245965, 200.164196)"><g><path d="M 2 0.394531 L 11.773438 2.3125 C 12.324219 2.417969 12.839844 2.074219 12.949219 1.523438 L 18.726562 -27.914062 C 18.835938 -28.460938 18.449219 -28.988281 17.898438 -29.09375 L 8.128906 -31.011719 C 7.578125 -31.121094 7.0625 -30.773438 6.953125 -30.226562 L 1.175781 -0.789062 C 1.066406 -0.238281 1.453125 0.285156 2 0.394531 Z M 2 0.394531 "/></g></g></g></svg>